HIERARCHY
ROOT Hip
{
  OFFSET 0.0 0.0 0.0
  CHANNELS 6 Xposition Yposition Zposition Xrotation Yrotation Zrotation
  JOINT LowerSpine
  {
    OFFSET 0.0 0.061367 -0.03653
    CHANNELS 3 Xrotation Yrotation Zrotation
    JOINT MiddleSpine
    {
      OFFSET 0.0 0.056002 0.002633
      CHANNELS 3 Xrotation Yrotation Zrotation
      JOINT Chest
      {
        OFFSET 0.0 0.069296 -0.013882
        CHANNELS 3 Xrotation Yrotation Zrotation
        JOINT Neck
        {
          OFFSET 0.0 0.156156 -0.002923
          CHANNELS 3 Xrotation Yrotation Zrotation
          JOINT Head
          {
            OFFSET 0.0 0.088183 0.023986
            CHANNELS 3 Xrotation Yrotation Zrotation
            End Site
            {
              OFFSET 1e-06 0.123215 0.003678
            }
          }
        }
        JOINT LClavicle
        {
          OFFSET 0.014189 0.150698 0.046467
          CHANNELS 3 Xrotation Yrotation Zrotation
          JOINT LShoulder
          {
            OFFSET 0.082893 0.021616 -0.034976
            CHANNELS 3 Xrotation Yrotation Zrotation
            JOINT LForearm
            {
              OFFSET 0.195645 -0.000695 -0.001695
              CHANNELS 3 Xrotation Yrotation Zrotation
              JOINT LHand
              {
                OFFSET 0.163209 0.000474 -0.000977
                CHANNELS 3 Xrotation Yrotation Zrotation
                End Site
                {
                  OFFSET 0.0 0.006864 0.0
                }
              }
            }
          }
        }
        JOINT RClavicle
        {
          OFFSET -0.014189 0.150698 0.046467
          CHANNELS 3 Xrotation Yrotation Zrotation
          JOINT RShoulder
          {
            OFFSET -0.082908 0.021619 -0.034982
            CHANNELS 3 Xrotation Yrotation Zrotation
            JOINT RForearm
            {
              OFFSET -0.195645 -0.000695 -0.001695
              CHANNELS 3 Xrotation Yrotation Zrotation
              JOINT RHand
              {
                OFFSET -0.163209 0.000474 -0.000977
                CHANNELS 3 Xrotation Yrotation Zrotation
                End Site
                {
                  OFFSET 0.0 0.006864 0.0
                }
              }
            }
          }
        }
      }
    }
  }
  JOINT RThigh
  {
    OFFSET -0.072558 0.02774 -0.005953
    CHANNELS 3 Xrotation Yrotation Zrotation
    JOINT RShin
    {
      OFFSET -0.005253 -0.285537 0.0
      CHANNELS 3 Xrotation Yrotation Zrotation
      JOINT RFoot
      {
        OFFSET 0.0 -0.28038 0.0
        CHANNELS 3 Xrotation Yrotation Zrotation
        JOINT RToe
        {
          OFFSET 0.0 -0.030816 0.064441
          CHANNELS 3 Xrotation Yrotation Zrotation
          End Site
          {
            OFFSET 0.0 0.0 0.043231
          }
        }
      }
    }
  }
  JOINT LThigh
  {
    OFFSET 0.072557 0.027741 -0.005953
    CHANNELS 3 Xrotation Yrotation Zrotation
    JOINT LShin
    {
      OFFSET 0.005253 -0.285539 0.0
      CHANNELS 3 Xrotation Yrotation Zrotation
      JOINT LFoot
      {
        OFFSET 0.0 -0.28038 0.0
        CHANNELS 3 Xrotation Yrotation Zrotation
        JOINT LToe
        {
          OFFSET 0.0 -0.030816 0.064441
          CHANNELS 3 Xrotation Yrotation Zrotation
          End Site
          {
            OFFSET 0.0 0.0 0.043231
          }
        }
      }
    }
  }
}
MOTION
Frames: 12
Frame Time: 0.03333333333333333
0.010365 0.586061 -0.01417 2.034114 4.24474 -2.4438 -0.908618 -0.327031 0.072949 -0.552743 1.339072 0.437589 -4.505095 2.947812 0.525303 -1.834888 0.165937 0.136112 0.038448 -0.109833 -0.020772 0.361801 -0.141507 -13.850665 21.685026 -27.075054 -55.410072 10.802449 -22.462618 -1.023101 0.154453 0.201525 -0.128548 -0.049163 0.068818 13.678436 15.343108 30.791971 56.834774 7.26723 17.398314 1.733152 0.031932 -0.211196 -0.012489 -2.125626 -2.693146 1.552021 11.346051 -1.717773 0.343344 -1.2379 1.343271 0.189235 -0.157292 0.39881 0.125878 0.303483 3.468117 -0.953441 4.374538 1.608021 -1.516521 -1.115902 -0.893835 -0.012924 0.048196 -0.164745 -0.059415 
0.002462 0.578685 -0.013333 2.066024 5.902291 -1.349835 -0.342531 -0.173 0.310031 -0.801858 0.704746 0.563534 -3.930829 3.257976 -0.557927 -0.821767 0.138805 0.167772 0.022943 -0.136255 0.001437 -0.125314 -0.465408 -13.321384 21.594206 -26.659876 -54.336121 10.793466 -21.893116 -0.513496 0.084399 0.122032 -0.085716 -0.366701 1.119487 13.571547 14.048697 31.52467 56.003841 7.064205 17.319008 2.284105 -0.127938 -0.126259 -0.017283 -5.08304 -0.271673 1.284211 16.020676 -0.80825 -0.19224 -0.599878 0.835787 0.178098 -0.243892 0.187366 0.140306 1.955152 4.872237 -1.863201 2.627503 1.669759 -1.441678 -1.647687 -1.055292 -0.098123 0.073487 -0.150928 -0.0729 
-0.009008 0.570938 -0.01357 3.455347 10.460593 0.335205 -0.171605 -0.227156 0.157728 -0.77229 0.693023 0.729755 -5.063598 2.790495 0.259148 -0.813576 0.131098 0.03643 0.009132 -0.035568 0.016812 0.052536 -0.451838 -12.868759 21.817421 -26.288984 -54.285412 11.363673 -25.312572 -0.971146 0.051081 0.094514 -0.051041 -0.266466 1.17788 13.556204 14.485536 32.807957 55.885643 6.503745 14.454354 3.53086 -0.035821 -0.1317 -0.007872 -5.891976 0.309984 0.810222 14.278498 -0.475665 0.032364 -1.600214 0.815623 0.102666 -0.156794 0.197988 0.109235 -0.056982 4.3205 -2.093416 4.154047 2.320671 -1.221795 -1.610845 -0.934639 -0.209554 0.030457 -0.056267 -0.025557 
-0.009115 0.568667 -0.001705 3.967521 10.637534 1.046614 -0.151854 -0.282159 0.083193 -0.819291 0.729903 0.79029 -5.423962 2.198482 0.612464 -0.754228 0.143524 -0.073206 0.009459 -0.007835 0.005653 0.201044 -0.276451 -12.844947 21.186361 -25.928463 -54.917633 11.28257 -27.890152 -1.167177 0.045174 0.088973 -0.043645 -0.189713 0.845838 13.766605 14.697226 33.237385 57.07407 5.815619 13.281352 4.147497 -0.002449 -0.128987 -0.003716 -6.816988 0.084837 0.956679 12.89123 -0.633257 0.206262 -1.959316 0.829111 0.073429 -0.093259 0.214974 0.093184 -0.660419 4.281242 -2.176412 4.620799 2.784412 -1.192064 -1.588179 -0.829516 -0.195982 0.010477 -0.022184 -0.013192 
-0.009038 0.568119 0.00701 4.05315 9.178067 1.213952 -0.126628 -0.293169 0.002112 -0.865096 0.729222 0.777615 -5.723737 1.451034 0.903973 -0.666262 0.112992 -0.15025 0.006571 0.025074 0.001645 0.244881 -0.125723 -12.738551 20.145796 -25.493746 -55.492264 10.439759 -29.671715 -1.206228 0.039615 0.078028 -0.037308 -0.187592 0.649746 13.80467 14.586311 32.356152 58.352184 5.087757 12.832397 4.391983 0.050926 -0.130483 0.00359 -8.069512 -0.771336 1.1869 11.202151 -0.969035 0.544459 -1.929819 0.925579 0.112037 -0.038393 0.227628 0.07417 -0.93921 3.743396 -2.503832 4.655063 2.752907 -1.196986 -1.547793 -0.829995 -0.232792 -0.026337 0.003891 0.001734 
-0.008365 0.56802 0.018347 3.817063 8.138347 1.136339 -0.118529 -0.288366 -0.04994 -0.922759 0.694376 0.729856 -5.704174 0.984201 1.143722 -0.585974 0.076011 -0.202094 0.003988 0.038997 -0.001591 0.241214 -0.018122 -12.671509 19.388102 -24.835171 -56.01807 9.332655 -30.79435 -1.339843 0.03424 0.066272 -0.029456 -0.217155 0.572651 13.777236 14.248461 31.27054 58.901039 4.60204 12.425354 4.446106 0.087688 -0.126493 0.008506 -8.368491 -1.200397 1.628911 9.653883 -1.056636 0.725255 -2.010028 1.012942 0.164103 -0.000985 0.222709 0.059671 -1.106155 3.220998 -2.476105 5.091559 2.629534 -1.160202 -1.557546 -0.756443 -0.24789 -0.052501 0.028687 0.013563 
-0.004883 0.567534 0.032346 3.664538 7.148518 0.701629 -0.092925 -0.28633 -0.075346 -0.964557 0.66247 0.717593 -5.766249 0.785694 1.325275 -0.533699 0.06464 -0.230169 0.003046 0.040034 -0.004091 0.26969 0.012986 -12.644486 18.981443 -24.383959 -56.329128 8.498978 -31.043242 -1.436843 0.032814 0.062025 -0.027452 -0.242464 0.459945 13.72247 14.002451 30.374186 58.947327 4.300099 11.923379 4.402803 0.103958 -0.124888 0.010381 -7.886911 -1.429014 2.218576 8.333948 -1.114258 0.834585 -2.120851 1.077919 0.194637 0.01764 0.225402 0.052566 -1.357177 2.74373 -2.247811 5.888139 2.395038 -1.061041 -1.572696 -0.65621 -0.224421 -0.063165 0.039489 0.018712 
-0.000742 0.566844 0.0459 3.144354 6.153348 0.310589 -0.051624 -0.266034 -0.090295 -0.97225 0.639713 0.710329 -5.7017 0.704316 1.545012 -0.495036 0.056672 -0.240685 0.001092 0.037359 -0.00519 0.277013 0.007506 -12.655286 18.752581 -24.015297 -56.570847 7.861065 -30.971146 -1.522901 0.030983 0.057213 -0.024826 -0.257436 0.376981 13.647273 13.714758 29.763018 58.833576 4.139178 11.43295 4.317191 0.112857 -0.120925 0.011786 -6.719937 -1.636766 2.809784 7.160247 -1.086268 0.885624 -2.175783 1.16286 0.240762 0.028189 0.224214 0.046353 -1.178785 2.369707 -2.059989 6.520024 2.133855 -0.936571 -1.557779 -0.552737 -0.194597 -0.068861 0.047384 0.021952 
0.003106 0.566412 0.059934 2.931719 5.578991 -0.059999 -0.036258 -0.241212 -0.097324 -0.975263 0.634246 0.706497 -5.597558 0.667699 1.731921 -0.475827 0.049297 -0.250373 -1.2e-05 0.034304 -0.005721 0.28813 -0.007323 -12.703098 18.643139 -23.883081 -56.652882 7.505742 -30.969683 -1.627656 0.028772 0.052661 -0.022109 -0.255176 0.309271 13.600986 13.557315 29.394794 58.586945 4.095325 11.118994 4.268442 0.114709 -0.117071 0.012784 -6.004106 -1.811512 3.288002 6.448699 -1.039249 0.90597 -2.234374 1.236319 0.280158 0.032926 0.218321 0.040998 -1.294383 2.146174 -1.781764 7.833186 2.033725 -0.941018 -1.495533 -0.454099 -0.161107 -0.074788 0.052621 0.024097 
0.005657 0.566203 0.074008 2.805092 5.221763 -0.216244 -0.031763 -0.223348 -0.104742 -0.973427 0.634986 0.702783 -5.533392 0.656512 1.895383 -0.471106 0.042429 -0.259307 -0.000701 0.035318 -0.005554 0.310038 0.007879 -12.748868 18.566515 -23.820002 -56.668861 7.31213 -31.027275 -1.715744 0.026315 0.04839 -0.019004 -0.235816 0.243041 13.57492 13.494441 29.199654 58.407059 4.080342 10.861986 4.268983 0.118525 -0.1149 0.01399 -5.527394 -1.904216 3.609664 6.00854 -0.975822 0.907363 -2.292393 1.291912 0.313332 0.037082 0.212211 0.035897 -1.365285 2.017696 -1.563204 8.981747 2.019961 -0.958372 -1.427557 -0.385944 -0.137261 -0.080874 0.05808 0.026553 
0.007437 0.566205 0.088043 2.746191 5.138454 -0.280388 -0.038465 -0.214086 -0.108912 -0.974762 0.643821 0.701248 -5.452971 0.682868 2.028237 -0.47449 0.034552 -0.266024 -0.001351 0.038449 -0.004936 0.326967 0.019783 -12.779899 18.531958 -23.846628 -56.604855 7.249027 -31.261326 -1.796991 0.023782 0.044612 -0.01605 -0.219603 0.199659 13.569413 13.554887 29.131105 58.280487 4.138014 10.665107 4.288751 0.123126 -0.113606 0.01524 -5.290968 -1.928923 3.802696 5.712182 -0.897548 0.893988 -2.320898 1.347668 0.343487 0.040293 0.206548 0.031961 -1.286994 1.990953 -1.418823 9.804022 2.068947 -0.991509 -1.363769 -0.346317 -0.124653 -0.088329 0.062626 0.02886 
0.008399 0.566395 0.102115 2.733279 5.288589 -0.252179 -0.051329 -0.211769 -0.111075 -0.977464 0.65405 0.702094 -5.351978 0.725939 2.130553 -0.475792 0.028236 -0.272519 -0.002242 0.043914 -0.003585 0.336606 0.031255 -12.797936 18.506197 -23.904453 -56.492188 7.262111 -31.69314 -1.876003 0.02098 0.040377 -0.012847 -0.20845 0.166632 13.578816 13.699362 29.102289 58.22578 4.291145 10.578906 4.31317 0.127734 -0.112513 0.016364 -5.276947 -1.913842 3.902759 5.565534 -0.820384 0.871023 -2.314966 1.404782 0.373778 0.043486 0.200367 0.0284 -1.082668 2.062139 -1.325115 10.39822 2.175328 -1.048784 -1.29787 -0.32517 -0.119957 -0.097923 0.066042 0.030406 
